# xmcd
#
# Track frame offsets: 
#        150
#        15069
#        33212
#        49338
#        70331
#        87830
#        105448
#        115777
#        137520
#        156864
#        173351
#        198394
#        220182
#        237951
#        260451
#
# Disc length: 3720 seconds
#
# Revision: 0
# Processed by: cddbd v1.5.2PL0 Copyright (c) Steve Scherf et al.
# Submitted via: ExactAudioCopy v1.3
#
DISCID=b70e860f
DTITLE=The Black Sorrows - Certified Blue
DYEAR=2014
DGENRE=Blues Rock
TTITLE0=Roaring Town
TTITLE1=Certified Blue
TTITLE2=Can't Give Up On You
TTITLE3=Wake Me Up In Paradise
TTITLE4=Save Me
TTITLE5=Return Of The Voodoo Sheiks
TTITLE6=Righteous Blues
TTITLE7=Lovers Waltz
TTITLE8=Man Of Straw
TTITLE9=The Devil Came Knockin On Sunday
TTITLE10=Big Heartache
TTITLE11=Until I Make You Mine
TTITLE12=Dear Lord
TTITLE13=Call Me A Fool
TTITLE14=The Gates Of Hell
EXTD=
EXTT0=
EXTT1=
EXTT2=
EXTT3=
EXTT4=
EXTT5=
EXTT6=
EXTT7=
EXTT8=
EXTT9=
EXTT10=
EXTT11=
EXTT12=
EXTT13=
EXTT14=
PLAYORDER=
